<svg width="78" height="25" viewBox="0 0 78 25" fill="none" xmlns="http://www.w3.org/2000/svg">
<path d="M26.9935 15.776L29.4939 18.6476L32.0775 15.795H34.1475V16.6765L30.9097 20.263L34.1475 24.0977V15.795H39.9915C41.0968 15.795 42.7174 16.3069 42.7174 18.6025C42.7174 21.8229 40.5849 21.8611 39.4172 21.8611H36.3824V24.9792H32.0567L29.414 21.9236L26.7072 24.9566H18.1061V15.7742H26.9935V15.776ZM53.4701 15.776H60.841V17.7558H55.7258V19.4753H60.6987V21.2174H55.7258V23.0358H60.841V24.9584H53.4701V15.776ZM46.0402 24.9809H43.7845V15.7968H49.6476C50.7564 15.7968 52.3544 16.2896 52.3544 18.2555C52.3544 19.366 52.0265 20.1832 50.7963 20.7992C51.8616 20.9224 52.2729 21.6199 52.2729 23.0948L52.3544 24.9809H50.1595L50.0987 23.2978C50.0796 22.5205 49.7708 21.7414 48.9934 21.7414H46.0402V24.9809ZM74.9964 19.3556C77.7709 19.4944 77.9999 20.8808 77.9999 22.3556C77.9999 24.0769 76.5857 25 75.1091 25H70.3739V23.0341H74.0646C74.691 23.0341 75.6227 23.0341 75.6227 22.1492C75.6227 21.7292 75.4579 21.4638 74.7916 21.3909C74.2739 21.3406 73.7549 21.3047 73.2352 21.2833C70.7314 21.2174 70.1501 19.9733 70.1501 18.4568C70.1501 16.7355 71.3595 15.7933 72.8361 15.7933H77.5713V17.7627H74.1062C73.3185 17.7731 72.4665 17.669 72.4665 18.5626C72.4665 19.1248 72.8882 19.2376 73.4191 19.2914C73.603 19.2931 74.8333 19.3556 74.9964 19.3556ZM66.5497 19.3556C69.3224 19.4944 69.5532 20.8808 69.5532 22.3556C69.5532 24.0769 68.1373 25 66.6624 25H61.9255V23.0341H65.6161C66.2408 23.0341 67.176 23.0341 67.176 22.1492C67.176 21.7292 67.0112 21.4638 66.3449 21.3909C66.0465 21.3493 64.9499 21.2868 64.7885 21.2833C62.2847 21.2174 61.7034 19.9733 61.7034 18.4568C61.7034 16.7355 62.9128 15.7933 64.3877 15.7933H69.1246V17.7627H65.6595C64.87 17.7731 64.0198 17.669 64.0198 18.5626C64.0198 19.1248 64.4397 19.2376 64.9741 19.2914C65.1563 19.2931 66.3866 19.3556 66.5497 19.3556ZM36.8335 9.19454H34.5778V0.0104118H40.4409C41.5479 0.0104118 43.1495 0.503193 43.1495 2.46911C43.1495 3.57787 42.8215 4.3986 41.5913 5.01284C42.6567 5.13603 43.0679 5.83356 43.0679 7.30844L43.1495 9.19454H40.9562L40.8938 7.51319C40.873 6.73411 40.5676 5.95676 39.7867 5.95676H36.8353V9.19454H36.8335ZM44.2981 9.19454H46.5521V0H44.2981V9.19454ZM25.916 0.0104118H33.2852V1.98848H28.1751V3.71148H33.1446V5.4553H28.1751V7.26853H33.2852V9.19454H25.916V0.0104118ZM9.45811 9.19454H13.999V2.37889L17.0112 9.19454H19.0622L22.1455 2.49167V9.19454H24.3995V0.0104118H20.8025L18.0349 6.17192L15.2778 0.0104118H11.7416V8.85619L7.80451 0.0104118H4.82353L0.804932 9.19454H3.18382L4.06354 7.14534H8.56277L9.45811 9.19454ZM59.5275 7.15054H55.03L54.1486 9.19975H51.1745C48.6742 9.19975 47.5654 7.10369 47.6192 4.5617C47.6955 0.789491 49.9252 0.00520589 50.9507 0.00520589H53.8935V2.0041H52.5002C51.0027 2.0041 49.835 2.16026 49.835 4.31184V4.97814C49.8454 6.59703 50.6939 6.9805 51.237 7.09328C51.3706 7.12451 51.617 7.13666 51.7072 7.12972L52.6824 7.12452L55.7883 0.0104118H58.7727L62.6161 8.63062V0.00520589H65.9458L69.7493 6.36452V0.00520589H72.0032V9.19975H68.9285L64.87 2.47432V9.19975H60.4211L59.5275 7.15054Z" fill="white"/>
<path d="M36.3839 19.9785H39.1931C40.1145 19.9785 40.4424 19.4441 40.4424 18.8298C40.4424 18.3787 40.1457 17.7766 39.2018 17.7766H36.3839V19.9785ZM25.4768 17.7558H20.3633V19.4753H25.3328V21.2174H20.3633V23.0358H25.5601L28.0413 20.2648L25.8464 17.7645L25.4768 17.7558ZM46.04 19.8571H48.8492C49.7706 19.8571 50.0985 19.4458 50.0985 18.8298C50.0985 18.3787 49.8018 17.7766 48.8579 17.7766H46.04V19.8571ZM36.8333 4.07069H39.6425C40.5656 4.07069 40.8918 3.66119 40.8918 3.04521C40.8918 2.59581 40.5951 1.98851 39.6512 1.98851H36.8333V4.07069ZM7.69154 5.16903H4.94653L6.29301 1.95728L7.69154 5.16903ZM57.2543 1.96248L55.9113 5.1725H58.6667L57.2543 1.96248Z" fill="#9E9E9E"/>
</svg>
