<svg width="68" height="32" viewBox="0 0 68 32" fill="none" xmlns="http://www.w3.org/2000/svg">
<g clip-path="url(#clip0_3304_243)">
<path d="M14.2228 9.80252C14.8745 9.58526 15.5697 9.4694 16.291 9.4694C19.4484 9.4694 22.0845 11.7115 22.687 14.6922L27.1624 13.7797C26.137 8.71625 21.6586 4.90417 16.291 4.90417C15.0599 4.90417 13.881 5.10405 12.7744 5.47483L14.2228 9.80252Z" fill="#E0E0E0"/>
<path d="M8.94202 24.3034L11.9691 20.8824C10.6192 19.686 9.76758 17.9393 9.76758 15.9927C9.76758 14.049 10.6192 12.3023 11.9691 11.1089L8.94202 7.68494C6.64782 9.71843 5.19946 12.6876 5.19946 15.9927C5.19946 19.3008 6.64782 22.2699 8.94202 24.3034Z" fill="url(#paint0_linear_3304_243)"/>
<path d="M22.687 17.3021C22.0816 20.2799 19.4484 22.5191 16.2939 22.5191C15.5697 22.5191 14.8716 22.4032 14.2228 22.1831L12.7744 26.5166C13.881 26.8845 15.0628 27.0843 16.2939 27.0843C21.6557 27.0843 26.1312 23.278 27.1624 18.2204L22.687 17.3021Z" fill="#9E9E9E"/>
<path d="M31.0759 21.0244C30.9281 20.7868 30.7312 20.4074 30.6095 20.1264C29.8998 18.481 29.8679 16.7778 30.4647 15.144C31.1222 13.351 32.3794 11.9808 34.0044 11.2798C36.0466 10.4021 38.3032 10.573 40.2613 11.7346C41.504 12.4472 42.3846 13.5479 43.0538 15.1064C43.1378 15.3062 43.2131 15.5177 43.2884 15.7002L31.0759 21.0244ZM35.1544 13.9245C33.7032 14.5473 32.9558 15.9088 33.1123 17.5019L39.2533 14.8572C38.196 13.6175 36.8229 13.2061 35.1544 13.9245ZM40.018 19.6774C40.0151 19.6774 40.0151 19.6803 40.0151 19.6803L39.8877 19.5934C39.5198 20.1872 38.9491 20.671 38.2278 20.9838C36.8548 21.5805 35.5831 21.427 34.6678 20.6246L34.5838 20.7521C34.5838 20.7521 34.5838 20.7492 34.5809 20.7492L33.0224 23.081C33.4106 23.3504 33.8248 23.5764 34.2593 23.7589C35.98 24.4743 37.7412 24.4396 39.4763 23.6864C40.7306 23.1419 41.7155 22.3134 42.3875 21.2619L40.018 19.6774ZM47.5553 7.8501V20.81L49.5714 21.6269L48.4272 24.2976L46.2025 23.3707C45.7043 23.1534 45.3625 22.8232 45.1075 22.4495C44.8613 22.0701 44.6788 21.5458 44.6788 20.8448V7.8501H47.5553ZM52.7751 17.5106C52.7751 16.407 53.2647 15.4163 54.0352 14.7443L51.967 12.4385C50.565 13.6783 49.6815 15.4887 49.6815 17.5048C49.6786 19.5239 50.5621 21.3372 51.9612 22.577L54.0265 20.2712C53.2589 19.5963 52.7751 18.6114 52.7751 17.5106ZM56.4482 21.1866C56.0426 21.1866 55.6487 21.117 55.2837 20.9954L54.2959 23.9298C54.9709 24.1557 55.6921 24.2803 56.4453 24.2803C59.7186 24.2832 62.4502 21.96 63.0845 18.875L60.0488 18.2551C59.7041 19.9323 58.2239 21.1895 56.4482 21.1866ZM56.4569 10.741C55.7066 10.741 54.9853 10.8627 54.3104 11.0857L55.2895 14.023C55.6574 13.9013 56.0484 13.8347 56.454 13.8347C58.2326 13.8376 59.7157 15.1006 60.0517 16.7807L63.0874 16.1666C62.4647 13.0758 59.733 10.7439 56.4569 10.741Z" fill="white"/>
</g>
<defs>
<linearGradient id="paint0_linear_3304_243" x1="8.58427" y1="7.68494" x2="8.58427" y2="24.3034" gradientUnits="userSpaceOnUse">
<stop stop-color="white"/>
<stop offset="1" stop-color="white" stop-opacity="0.75"/>
</linearGradient>
<clipPath id="clip0_3304_243">
<rect width="67.7392" height="32" fill="white" transform="translate(0.260742)"/>
</clipPath>
</defs>
</svg>
